<?xml version="1.0" encoding="UTF-8"?>
<svg xmlns="http://www.w3.org/2000/svg" width="480" height="470" viewBox="0 0 480 470" role="img" aria-labelledby="title desc">
<title id="title">Airodrom - airodrom-3d-model-blue.svg</title>
<desc id="desc">Reference-matched three-dimensional appearance rendered entirely as editable vector facets and outlined letters. This SVG is a planar illustration, not an interactive 3D mesh. Transparent outside the model. Brand asset v2.0.0. Original vector geometry.</desc>
<defs><linearGradient id="blue-side" gradientUnits="userSpaceOnUse" x1="145" y1="509" x2="285" y2="235"><stop offset="0" stop-color="#558AF9"/><stop offset="1" stop-color="#5091FF"/></linearGradient><linearGradient id="slot-wall" gradientUnits="userSpaceOnUse" x1="159" y1="480" x2="239" y2="283"><stop offset="0" stop-color="#5351A7"/><stop offset="1" stop-color="#615EC4"/></linearGradient><linearGradient id="cap-white" gradientUnits="userSpaceOnUse" x1="230" y1="216" x2="333" y2="280"><stop offset="0" stop-color="#FFFFFF"/><stop offset="1" stop-color="#F8FDFE"/></linearGradient><linearGradient id="blue-base-left" gradientUnits="userSpaceOnUse" x1="80" y1="525" x2="235" y2="595"><stop offset="0" stop-color="#5985F5"/><stop offset="1" stop-color="#538DFC"/></linearGradient><linearGradient id="blue-base-front" gradientUnits="userSpaceOnUse" x1="232" y1="621" x2="317" y2="549"><stop offset="0" stop-color="#538DFC"/><stop offset="1" stop-color="#5091FF"/></linearGradient><linearGradient id="blue-base-inner" gradientUnits="userSpaceOnUse" x1="305" y1="500" x2="404" y2="540"><stop offset="0" stop-color="#5552AB"/><stop offset="1" stop-color="#6B66D6"/></linearGradient><linearGradient id="blue-front" gradientUnits="userSpaceOnUse" x1="222" y1="561" x2="358" y2="267"><stop offset="0" stop-color="#5689F8"/><stop offset="1" stop-color="#5091FF"/></linearGradient><linearGradient id="cyan-side" gradientUnits="userSpaceOnUse" x1="749" y1="474" x2="822" y2="248"><stop offset="0" stop-color="#6E69DC"/><stop offset="0.52" stop-color="#5091FF"/><stop offset="1" stop-color="#45C8DC"/></linearGradient><linearGradient id="cyan-cap" gradientUnits="userSpaceOnUse" x1="797" y1="242" x2="881" y2="267"><stop offset="0" stop-color="#48CAD3"/><stop offset="1" stop-color="#61D0E1"/></linearGradient><linearGradient id="cyan-front" gradientUnits="userSpaceOnUse" x1="778" y1="488" x2="930" y2="287"><stop offset="0" stop-color="#5B82F2"/><stop offset="0.55" stop-color="#45C8DC"/><stop offset="1" stop-color="#48CAD4"/></linearGradient><linearGradient id="cyan-base-top" gradientUnits="userSpaceOnUse" x1="680" y1="485" x2="990" y2="430"><stop offset="0" stop-color="#44448B"/><stop offset="1" stop-color="#494895"/></linearGradient><linearGradient id="cyan-base-side" gradientUnits="userSpaceOnUse" x1="671" y1="480" x2="751" y2="607"><stop offset="0" stop-color="#4C4B9A"/><stop offset="1" stop-color="#424287"/></linearGradient><linearGradient id="cyan-base-front" gradientUnits="userSpaceOnUse" x1="756" y1="593" x2="1014" y2="444"><stop offset="0" stop-color="#363771"/><stop offset="1" stop-color="#292C58"/></linearGradient><linearGradient id="plaque-trim" gradientUnits="userSpaceOnUse" x1="768" y1="600" x2="1007" y2="444"><stop offset="0" stop-color="#6E69DC"/><stop offset="1" stop-color="#45C8DC"/></linearGradient><linearGradient id="blue-face" gradientUnits="userSpaceOnUse" x1="12.0" y1="223.3483825925064" x2="244.0" y2="32.65161740749359"><stop offset="0" stop-color="#5689F8"/><stop offset="1" stop-color="#5091FF"/></linearGradient><linearGradient id="cyan-face" gradientUnits="userSpaceOnUse" x1="12.0" y1="223.3483825925064" x2="244.0" y2="32.65161740749359"><stop offset="0" stop-color="#5B82F2"/><stop offset="0.55" stop-color="#45C8DC"/><stop offset="1" stop-color="#48CAD4"/></linearGradient></defs>
<g transform="translate(-45 -185)"><polygon points="79,498 167,458 321,548 233,585" fill="#FFFFFF" stroke="#1E2242" stroke-width="2" stroke-linejoin="round"/><polygon points="79,498 233,585 233,623 79,536" fill="url(#blue-base-left)" stroke="#1E2242" stroke-width="2" stroke-linejoin="round"/><polygon points="233,585 321,548 321,587 233,623" fill="url(#blue-base-front)" stroke="#1E2242" stroke-width="2" stroke-linejoin="round"/><polygon points="300,482 388,444 492,489 404,523" fill="#FFFFFF" stroke="#1E2242" stroke-width="2" stroke-linejoin="round"/><polygon points="300,482 404,523 404,560 300,520" fill="url(#blue-base-inner)" stroke="#1E2242" stroke-width="2" stroke-linejoin="round"/><polygon points="404,523 492,489 492,527 404,560" fill="url(#blue-base-front)" stroke="#1E2242" stroke-width="2" stroke-linejoin="round"/><polygon points="213,226 313,284 223,561 117,504" fill="url(#blue-side)" stroke="#1E2242" stroke-width="2.2" stroke-linejoin="round"/><polygon points="232,281 269,302 205,498 157,486" fill="url(#slot-wall)" stroke="#1E2242" stroke-width="2" stroke-linejoin="round"/><polygon points="232,281 269,302 255,354 235,345" fill="#3865B1" stroke="#1E2242" stroke-width="1.7" stroke-linejoin="round"/><polygon points="235,345 249,353 203,493 187,484" fill="#E0F7F1" stroke="#1E2242" stroke-width="1.4" stroke-linejoin="round"/><polygon points="213,226 257,210 358,267 313,284" fill="url(#cap-white)" stroke="#1E2242" stroke-width="2.1" stroke-linejoin="round"/><polygon points="313,284 358,267 339,329" fill="#4F96FC" stroke="#1E2242" stroke-width="1.6" stroke-linejoin="round"/><polygon points="313,284 358,267 453,475 392,498 369,470 304,495 284,535 223,561" fill="#3A3B78" stroke="#1E2242" stroke-width="1.9" stroke-linejoin="round"/><g transform="matrix(0.99137931 -0.37068966 0.00524393 1.27427437 209.93222556 280.84115671)"><path d="M12.000,223.348 L106.431,32.652 L152.323,136.423 L162.203,136.423 L131.860,70.607 L149.893,32.706 L244.000,223.348 L180.020,223.348 L163.175,189.334 L92.825,189.334 L76.465,223.348 L12.000,223.348Z M150.109,62.617 L145.304,72.281 L182.234,148.301 L97.738,148.301 L121.386,99.709 L105.837,62.509 L33.057,210.930 L42.667,210.930 L106.970,81.352 L113.395,97.225 L84.294,156.399 L186.121,156.399 L213.171,210.930 L223.429,210.930 L150.109,62.617Z M128.459,113.692 L118.147,136.423 L139.095,136.423 L128.459,113.692Z M78.355,168.817 L57.677,210.930 L68.043,210.930 L84.834,176.916 L171.760,176.916 L188.389,210.930 L198.701,210.930 L178.023,168.817 L78.355,168.817Z" fill="url(#blue-face)" fill-rule="evenodd" stroke="#1E2242" stroke-width="2.2" stroke-linejoin="round"/></g></g>
</svg>
